<?xml version="1.0" encoding="utf-8"?>
<!-- Generator: Adobe Illustrator 19.2.1, SVG Export Plug-In . SVG Version: 6.00 Build 0)  -->
<svg version="1.1" id="layer" xmlns="http://www.w3.org/2000/svg" xmlns:xlink="http://www.w3.org/1999/xlink" x="0px" y="0px"
	 viewBox="0 0 652 652" style="enable-background:new 0 0 652 652;" xml:space="preserve">
<path d="M73,294.1c-0.1,0.8-0.5,1.3-1.4,1.3c-0.2,0-0.5,0-1-0.1c-1.4-0.2-4.1-0.7-6.7-0.7s-4.2,0.3-5.3,1.2c-1,0.9-1.4,2.4-1.4,4.5
	v6.2H71c1,0,1.8,0.7,1.8,1.7v10.4c0,1-0.8,1.6-1.8,1.6H57.2v43.5c0,1-0.8,1.7-1.9,1.7h-16c-1.1,0-1.9-0.7-1.9-1.7v-43.5h-8.7
	c-1.1,0-1.9-0.6-1.9-1.6v-10.4c0-1,0.8-1.7,1.9-1.7h8.7v-7.1c0-12.2,6.4-18.4,20.1-18.4c8.9,0,14,1.3,15.7,1.9
	c1.1,0.3,1.4,1.3,1.2,1.9L73,294.1z M104.9,368.7c-26.1,0-29.4-13.4-29.4-30.8c0-17.4,3.3-30.9,29.4-30.9s29.5,13.6,29.5,30.9
	C134.4,355.3,131,368.7,104.9,368.7z M104.9,319.9c-8.9,0-9.3,5.2-9.3,18c0,12.8,0.5,17.9,9.3,17.9c9,0,9.3-5.2,9.3-17.9
	C114.2,325,113.8,319.9,104.9,319.9z M175.7,321.1c-6.4,0-11.9,0.7-12.9,0.9v43.4c0,1-0.7,1.7-1.8,1.7h-16.1c-1,0-1.8-0.7-1.8-1.7
	v-49.6c0-4,3.6-5.3,10.3-6.7c5.4-1.1,13.1-2,20.1-2h1.9c1,0,1.6,0.2,2,0.7c0.3,0.3,0.6,0.9,0.6,1.8v9.1
	C178,319.9,178,321.1,175.7,321.1z M274.9,367.3h-16.1c-1.1,0-1.8-0.7-1.8-1.7v-38.1c0-5.9-3.1-7.8-7.5-7.8c-3.6,0-7.9,0.8-9,1v44.9
	c0,1-0.8,1.7-1.9,1.7h-16.1c-1.1,0-1.8-0.7-1.8-1.7v-38.1c0-5.9-2.6-7.8-7-7.8c-3.5,0-8.4,0.8-9.5,1v44.9c0,1-0.7,1.7-1.8,1.7h-16.1
	c-1.1,0-1.8-0.7-1.8-1.7v-49.5c0-4.1,3.5-5.4,10.4-6.8c5.6-1.1,14.2-2.2,21.3-2.2c7.2,0,12,1.7,15.2,3.7c2.2-0.8,11.8-3.7,21.5-3.7
	c14.5,0,24,3.1,24,17.7v40.9C276.7,366.6,276,367.3,274.9,367.3z M309.6,364c0,0.8-0.5,0.9-0.9,1.1c-1.2,0.6-4,1.3-8.1,1.3
	c-6.8,0-11.4-3.2-11.4-11.5v-70.6c0-0.9,0.6-1.5,1.4-1.7l6.1-1.6c0.8-0.2,1.5,0.4,1.5,1.3v72.3c0,4,2.8,4.6,5.1,4.6
	c1.6,0,3.2-0.2,4-0.4l0.5-0.1c0.3,0,0.8,0.1,0.9,0.8l0.8,3.8C309.6,363.8,309.6,363.9,309.6,364z M352.6,367
	c-3.3,0.8-8.7,1.7-14.8,1.7c-9.8,0-26-0.3-26-18.5c0-14.8,8.1-15.8,19.6-17.6l21.5-3.5v-5.3c0-3.6-0.1-6.5-4.1-8
	c-2.2-0.9-5.3-1.3-10.3-1.3c-8.7,0-16.2,2.1-21,3.2c-1.1,0.2-1.6,0.1-1.8-0.8l-1-5c-0.2-1,0.8-1.5,1.1-1.6
	c3.6-1.3,13.4-3.5,23.7-3.5c8.1,0,13.3,1.1,16.6,2.9c5.8,3,5.9,8.3,5.9,13.6v32.1C362,363.4,360.4,365.2,352.6,367z M353,336.2
	l-22.1,3.7c-5,0.9-9.8,1.7-9.8,9.9c0,11.2,9.3,12,16.8,12c5,0,10.3-0.7,15.1-2.2V336.2z M384,308.2c3.1-0.9,12-3.1,19.2-3.1
	c18.8,0,24.1,9.5,24.1,30.7c0,21.8-6,31-26.6,31c-8.1,0-15.4-1.3-19.2-2.6c-5.7-1.9-5.9-4.7-5.9-8.8v-71.2c0-0.9,0.5-1.2,1.4-1.5
	l6.1-1.6c1-0.3,1.5,0.7,1.5,1.3V302L384,308.2z M401.7,312.4c-6.2,0-15.1,2.1-17.1,2.7v42.7c1.2,0.4,7.3,2,15.9,2
	c13.1,0,17.5-6,17.5-23.7C418,318,414.8,312.4,401.7,312.4z M452.9,368.7c-10,0-18.6-3-20.1-3.6c-0.6-0.2-1.1-0.6-0.8-1.8l1-4.3
	c0.2-0.8,0.6-1.5,1.8-1c0.3,0.1,8.6,3.2,18.3,3.2c9.6,0,15.2-3,15.2-9.9c0-9.3-7.3-9-16.1-10.3c-5.6-0.9-19.8-1.9-19.8-16.7
	c0-14.5,13.1-17.5,23-17.5c9.8,0,17.4,2,18.6,2.4c0.8,0.2,1.1,0.7,1,1.3l-0.8,5c-0.1,0.7-0.5,0.9-1.2,0.9c-1.6-0.2-10-2.1-16.7-2.1
	c-8.2,0-15,2.2-15,9.3c0,7.6,7.7,8.5,14.8,9.4c10.2,1.3,21.2,2.1,21.2,17.4C477.4,365.1,466,368.7,452.9,368.7z M626.7,294.6
	c-1.3,4.3-4.3,7.7-6.7,11.4c-6,9.1-12.1,18.2-18.1,27.3c-0.1,0.2-0.2,0.4-0.4,0.7c2,1.4,4,2.6,5.9,4.1c0.8,0.6,1.6,1.4,2.1,2.2
	c1.2,2.2,0.5,4.7-1.5,6.3c-6.9,5.7-13.9,11.2-20.7,17c-3.6,3.1-7.9,1.3-9.2-2.4c-4.9-14.4-9.9-28.8-14.9-43.2
	c-0.1-0.2-0.2-0.5-0.4-1c-0.4,1-0.7,1.9-1,2.7c-4.7,13.6-9.4,27.2-14,40.8c-0.2,0.5-0.3,1-0.5,1.4c-1.3,3.4-5.4,4.6-8.2,2.3
	c-2.8-2.3-5.6-4.6-8.5-6.9c-4.2-3.4-8.3-6.9-12.5-10.2c-3.4-2.7-3.3-6.5,0.4-9c2.1-1.4,4.1-2.8,6.3-4.2c-0.8-1.2-1.6-2.3-2.3-3.5
	c-7.2-10.5-14.4-21.1-21.6-31.6c-2.6-3.8-1.7-10,2.9-12.2c2.5-1.3,4.9-2.8,7.3-4.1c2.8-1.5,5.7-1.5,8.5,0.1
	c14.1,8.3,28.1,16.6,42.2,25c0.8,0.5,1.4,0.5,2.3,0c14-8.4,27.9-16.7,41.9-25c3-1.8,6-1.8,9-0.1c2.3,1.3,4.6,2.7,7,3.9
	c2.5,1.3,3.6,3.4,4.5,5.8c0.1,0.2,0.1,0.5,0.2,0.8C626.7,293.4,626.7,294,626.7,294.6L626.7,294.6z M618.9,298
	c0-0.1-0.1-0.1-0.1-0.2c-16.5,4.8-33,9.6-49.7,14.4c9.5,6.3,18.7,12.5,28.1,18.7C604.5,319.9,611.7,309,618.9,298z M557,312.2
	c-16.6-4.8-32.9-9.6-49.2-14.3c0,0.1-0.1,0.1-0.1,0.2c7.4,10.8,14.7,21.6,22.2,32.4C538.9,324.4,547.9,318.4,557,312.2z
	 M542.7,359.4c3.6-10.7,7.2-21.2,10.8-31.7c-0.4,0.1-0.6,0.4-0.7,0.6c-3.5,4.8-7,9.6-10.4,14.4c-0.5,0.7-0.9,1.3-1.4,1.9
	c-2.2,2.7-6.4,2.6-8.4-0.2c-1.4-2-2.7-4-4.2-6.1c-2.1,1.4-4.2,2.8-6.3,4.2C529,348.2,535.8,353.7,542.7,359.4z M506.3,291.6
	c11.9,3.5,23.5,6.9,35.1,10.3c-0.1-0.3-0.3-0.5-0.4-0.6c-8-4.7-16-9.5-24-14.2c-0.9-0.5-1.9-0.5-2.8,0c-1.9,1.1-3.8,2.1-5.6,3.2
	C507.9,290.7,507.2,291.1,506.3,291.6z M548.1,325.3c-0.1-0.1-0.1-0.1-0.2-0.2c-4.9,3.3-9.8,6.7-14.8,10c1.3,1.9,2.6,3.7,3.9,5.6
	C540.7,335.5,544.4,330.4,548.1,325.3z"/>
</svg>
